<svg xmlns="http://www.w3.org/2000/svg" version="1.1" xmlns:xlink="http://www.w3.org/1999/xlink" xmlns:svgjs="http://svgjs.com/svgjs" width="406.22" height="460"><svg xmlns="http://www.w3.org/2000/svg" xmlns:xlink="http://www.w3.org/1999/xlink" viewBox="0 0 406.22 460"><defs><style>.cls-1{fill:url(#linear-gradient);}.cls-2{fill:url(#linear-gradient-2);}</style><linearGradient id="SvgjsLinearGradient1003" x1="170.54" y1="229.35" x2="-152.92" y2="552.81" gradientTransform="translate(212.11 620.59) rotate(180)" gradientUnits="userSpaceOnUse"><stop offset="0" stop-color="#f0f"></stop><stop offset="1" stop-color="#00dedf"></stop></linearGradient><linearGradient id="SvgjsLinearGradient1002" x1="116.98" y1="282.75" x2="-99.1" y2="498.83" xlink:href="#linear-gradient"></linearGradient></defs><g id="SvgjsG1001" data-name="Layer 2"><g id="SvgjsG1000" data-name="Layer 1"><path class="cls-1" d="M5.83,147,7,152.36c.4,1.77.85,3.55,1.28,5.32s.86,3.56,1.29,5.34L11,168.37c1.84,7.13,3.7,14.3,5.38,21.54a191.84,191.84,0,0,1,3.76,21.87c.38,3.68.7,7.35.81,11,.06,1.84.11,3.68.13,5.52l0,1.38,0,1.39L21,233.87c-.06,1.84-.09,3.68-.18,5.52s-.21,3.68-.35,5.52-.3,3.68-.45,5.51-.41,3.67-.65,5.5-.48,3.66-.75,5.49l-.92,5.46c-.62,3.64-1.35,7.27-2.15,10.88C14,285,12.22,292.14,10.44,299.27c-.84,3.57-1.8,7.12-2.64,10.67l-.62,2.66L6.69,315l-.23,1.22c-.08.41-.1.82-.15,1.23l-.23,2.47a41,41,0,0,0,2,14.81,9.83,9.83,0,0,0,.44,1.18L9,337.09a21.44,21.44,0,0,0,1,2.3l1.17,2.23a9,9,0,0,0,.64,1.08l.69,1.05a38.08,38.08,0,0,0,3,4,37.54,37.54,0,0,0,7.41,6.57,35.87,35.87,0,0,0,4.21,2.5,8.59,8.59,0,0,0,1.11.51l1.12.47,1.11.47.56.23.58.18c1.57.48,3,.91,4.8,1.39s3.51.94,5.28,1.37c7,1.79,14.18,3.53,21.26,5.49s14.13,4.07,21,6.62c1.73.6,3.42,1.3,5.13,2s3.39,1.39,5.07,2.12c3.36,1.46,6.65,3.06,9.92,4.71A181.37,181.37,0,0,1,140.48,407c5.57,4.82,10.88,10,16.05,15.29,2.57,2.67,5.16,5.27,7.67,8l7.55,8c1.25,1.35,2.52,2.66,3.79,4,.66.69,1.2,1.2,1.79,1.78s1.16,1.16,1.78,1.69l1.92,1.53c.33.25.64.52,1,.75l1,.67,2.1,1.32c.73.39,1.47.75,2.22,1.12l1.12.56,1.16.45L192,453l2.42.66,1.21.33,1.24.21,2.49.41,2.51.17,1.26.08,1.26,0,2.53-.08c.84-.1,1.67-.22,2.5-.33l1.25-.16,1.24-.28,2.45-.58c.8-.25,1.6-.54,2.39-.81l1.19-.4c.39-.16.77-.34,1.15-.52l2.29-1c.73-.4,1.45-.84,2.17-1.25l1.08-.63c.35-.22.68-.49,1-.73l2-1.46c.65-.52,1.26-1.1,1.88-1.64,1.19-1,2.54-2.36,3.83-3.61l7.76-7.69c2.6-2.56,5.17-5.18,7.81-7.71l3.95-3.82c1.33-1.27,2.67-2.51,4-3.77,2.68-2.51,5.4-5,8.21-7.32,1.4-1.18,2.78-2.39,4.2-3.54s2.87-2.27,4.32-3.39a211.21,211.21,0,0,1,37.27-22.74,276.8,276.8,0,0,1,40.8-15.5l10.46-3.08,5.23-1.47,2.61-.75c.86-.26,1.77-.5,2.49-.74A40.49,40.49,0,0,0,389.44,350l.91-.88a8.39,8.39,0,0,0,.88-.91l1.65-1.94a23.79,23.79,0,0,0,1.55-2l.75-1a8.17,8.17,0,0,0,.71-1.06,31.46,31.46,0,0,0,2.36-4.58c.17-.39.34-.79.49-1.19a11,11,0,0,0,.44-1.21q.36-1.25.69-2.49a17.92,17.92,0,0,0,.48-2.53c.07-.43.12-.85.18-1.27a9.25,9.25,0,0,0,.13-1.28,41.51,41.51,0,0,0,0-5.11c-.06-.84-.08-1.68-.17-2.52l-.34-2.49c-.07-.41-.1-.82-.18-1.23l-.25-1.22-.5-2.42L398,307.23l-1.28-5.34c-.82-3.56-1.7-7.13-2.58-10.71s-1.74-7.17-2.56-10.77L390.4,275c-.4-1.81-.82-3.61-1.16-5.43A208.75,208.75,0,0,1,386,247.65c-.29-3.67-.6-7.35-.67-11-.05-1.84-.09-3.69-.1-5.53l0-1.38,0-1.38,0-2.76a247.91,247.91,0,0,1,5-43.92c.69-3.62,1.5-7.22,2.28-10.82s1.64-7.18,2.47-10.76,1.73-7.13,2.52-10.7l.6-2.67c.16-.78.33-1.56.47-2.36l.23-1.19c.06-.4.08-.8.13-1.2l.24-2.42a39,39,0,0,0-.69-9.75A40.36,40.36,0,0,0,397.3,125a8.43,8.43,0,0,0-.41-1.16l-.45-1.15a20.64,20.64,0,0,0-1-2.27l-1.11-2.21a10.28,10.28,0,0,0-.62-1.07l-.66-1a37.66,37.66,0,0,0-10-10.74,37.9,37.9,0,0,0-4.08-2.64,7.75,7.75,0,0,0-1.07-.56l-1.09-.51-1.09-.52-.54-.26-.57-.21c-1.53-.57-2.91-1.08-4.71-1.63s-3.43-1.12-5.16-1.64c-6.9-2.15-13.84-4.28-20.72-6.61A261.48,261.48,0,0,1,303.8,74a228,228,0,0,1-36.53-23.91c-5.73-4.53-11.22-9.37-16.62-14.29s-10.69-9.95-16-14.93c-1.31-1.26-2.65-2.48-4-3.71-.69-.65-1.25-1.13-1.86-1.67s-1.21-1.07-1.85-1.57l-2-1.4c-.33-.22-.65-.48-1-.69l-1.05-.6-2.12-1.2-2.22-1-1.12-.5-1.16-.39L214,7.38l-2.38-.55-1.2-.28-1.21-.17-2.43-.32L204.34,6l-1.22,0L201.89,6l-2.44.14c-.81.11-1.62.25-2.42.37l-1.21.19-1.19.3-2.36.61c-.77.26-1.53.55-2.29.83l-1.14.41-1.1.52-2.19,1.05c-.7.4-1.38.84-2.07,1.25l-1,.62c-.33.22-.65.48-1,.72l-1.92,1.44c-.62.5-1.19,1.07-1.78,1.6s-1.12,1-1.8,1.72L174,19.65c-1.31,1.27-2.58,2.58-3.87,3.87l-3.89,3.88c-2.59,2.59-5.18,5.19-7.84,7.73l-4,3.83c-1.33,1.27-2.7,2.5-4,3.75-2.71,2.5-5.44,5-8.27,7.3-1.41,1.17-2.8,2.38-4.24,3.52s-2.88,2.26-4.34,3.37A218.28,218.28,0,0,1,96.15,79.63,270.19,270.19,0,0,1,55.22,95.15l-10.5,3-10.37,2.86a39.65,39.65,0,0,0-16.63,9.24l-.91.84a9.14,9.14,0,0,0-.88.88l-1.65,1.86a22.58,22.58,0,0,0-1.56,1.95l-.75,1a12,12,0,0,0-.73,1,41.19,41.19,0,0,0-2.51,4.39l-.56,1.14a11.11,11.11,0,0,0-.53,1.16l-.89,2.38A17.61,17.61,0,0,0,6,129.37l-.32,1.24a8.68,8.68,0,0,0-.27,1.25,33.41,33.41,0,0,0-.53,5.08l0,1.27a9.11,9.11,0,0,0,0,1.28L5.06,142c0,.42,0,.84.11,1.26l.23,1.25Zm-5,.69A56.89,56.89,0,0,1,1,131c.05-.47.18-.92.27-1.38l.31-1.37a25.79,25.79,0,0,1,.69-2.72l.84-2.68a12.18,12.18,0,0,1,.5-1.31l.54-1.3a52.23,52.23,0,0,1,2.43-5.06,51.27,51.27,0,0,1,6.55-9A50.49,50.49,0,0,1,31.05,93.28c.85-.4,1.67-.7,2.49-1l2.47-1,4.93-2c3.28-1.37,6.54-2.79,9.81-4.18l9.73-4.37,9.65-4.55c3.19-1.59,6.4-3.11,9.57-4.74l4.74-2.46c1.58-.82,3.16-1.63,4.72-2.49Q108,56.3,125.91,44.61l4.47-2.92c1.49-1,3-2,4.42-3l4.4-3,4.36-3.1c1.44-1,2.91-2.06,4.34-3.11l4.3-3.18c2.88-2.1,5.71-4.28,8.54-6.45s5.62-4.39,8.41-6.6c1.41-1.1,2.75-2.22,4.28-3.31.75-.54,1.48-1.11,2.25-1.62l2.37-1.44c.4-.23.78-.49,1.19-.7l1.24-.62L183,4.27l2.57-1,1.29-.51,1.33-.4,2.65-.79L193.5,1,194.86.7l1.37-.18L199,.18l2.77-.12L203.12,0l1.38.06,2.76.12L210,.53l1.37.18,1.35.28,2.71.57,2.65.8,1.32.4,1.29.51,2.57,1,2.48,1.23,1.24.62c.41.22.79.47,1.19.71l2.36,1.44c.78.51,1.5,1.08,2.25,1.62S234.3,11,235,11.56l4.19,3.33q16.77,13.27,34.47,25.32a487.32,487.32,0,0,0,74.61,41.45c3.25,1.45,6.48,2.93,9.76,4.3s6.53,2.81,9.83,4.12l4.93,2c1.63.63,3.35,1.42,5,2.19l.63.29.61.34,1.21.68,1.21.68.61.34c.2.12.38.26.58.39a49.79,49.79,0,0,1,4.52,3.26,50.75,50.75,0,0,1,7.88,7.9c1.1,1.51,2.28,3,3.23,4.58l.74,1.19a12.33,12.33,0,0,1,.71,1.21l1.28,2.5a26.68,26.68,0,0,1,1.15,2.56l.54,1.3a12.18,12.18,0,0,1,.5,1.31,51.15,51.15,0,0,1,1.59,5.39,51.7,51.7,0,0,1,1.45,11.14l-.05,2.81c0,.47,0,.94,0,1.41L406,145l-.29,2.79-.38,2.67-.75,5.34-.37,2.67-.33,2.68c-.43,3.57-.92,7.13-1.27,10.71s-.79,7.15-1.09,10.73c-1.35,14.33-2.16,28.72-2.32,43.12s.24,28.81,1.23,43.18,2.6,28.68,4.66,42.92l.29,2.76.15,1.38c0,.46,0,.92.05,1.39l.09,2.77c0,.93-.07,1.86-.1,2.79a51.85,51.85,0,0,1-.54,5.55,12.26,12.26,0,0,1-.25,1.37l-.29,1.37a25.07,25.07,0,0,1-.66,2.72l-.8,2.69a12.12,12.12,0,0,1-.49,1.31l-.52,1.3a46.88,46.88,0,0,1-2.41,5.06,51.65,51.65,0,0,1-6.51,9.06,49.89,49.89,0,0,1-17.92,12.83c-.85.4-1.67.7-2.49,1l-2.46,1-4.94,2c-3.28,1.36-6.54,2.78-9.81,4.17l-9.74,4.36-9.65,4.55c-3.19,1.58-6.41,3.11-9.57,4.74l-4.74,2.46c-1.58.83-3.16,1.64-4.72,2.5-12.53,6.77-24.8,14.05-36.68,21.94l-4.45,2.95c-1.48,1-2.93,2-4.39,3.06L267.15,424l-4.34,3.14c-1.44,1-2.89,2.08-4.32,3.14l-4.27,3.21c-2.87,2.12-5.68,4.32-8.49,6.5s-5.59,4.43-8.37,6.66c-1.4,1.11-2.73,2.23-4.27,3.35-.75.54-1.49,1.12-2.26,1.63l-2.39,1.47c-.4.24-.79.5-1.2.72l-1.25.62c-.83.42-1.66.85-2.5,1.25l-2.6,1.05-1.3.51-1.34.41-2.68.8-2.73.58-1.37.29-1.38.18-2.78.35-2.79.12-1.4.06-1.39-.06-2.8-.13-2.77-.35-1.39-.18-1.36-.29-2.74-.59-2.68-.8-1.33-.41-1.3-.52-2.6-1-2.5-1.25-1.25-.63c-.41-.22-.8-.48-1.2-.72l-2.38-1.46c-.78-.52-1.51-1.09-2.26-1.65s-1.52-1.12-2.19-1.67l-4.16-3.35q-16.68-13.38-34.29-25.56A469.19,469.19,0,0,0,58,377.72c-3.25-1.45-6.48-2.92-9.76-4.29s-6.53-2.8-9.83-4.11l-4.94-2c-1.63-.62-3.35-1.41-5-2.18l-.63-.29-.61-.34L26,363.83l-1.21-.69-.61-.34c-.2-.11-.39-.25-.58-.38a51.29,51.29,0,0,1-12.4-11.15A52.36,52.36,0,0,1,8,346.7l-.74-1.19a12.33,12.33,0,0,1-.71-1.21l-1.29-2.5c-.45-.82-.78-1.7-1.15-2.57l-.54-1.29c-.17-.44-.37-.86-.5-1.31a53.11,53.11,0,0,1-1.6-5.4A52.25,52.25,0,0,1,0,320.09l0-2.81c0-.47,0-.94,0-1.4l.14-1.4.29-2.79L.89,309l.74-5.34L2,301l.32-2.68c.43-3.57.91-7.13,1.26-10.71s.78-7.15,1.08-10.73C6,262.56,6.78,248.17,6.91,233.77s-.3-28.8-1.36-43.15S2.9,162,.81,147.72Z"></path><path class="cls-2" d="M150.1,100.05l-1.87,3-1.82,3c-.62,1-1.21,2-1.82,3l-1.79,3.1c-2.39,4.13-4.78,8.29-7.29,12.39a122,122,0,0,1-8.17,11.8c-1.49,1.86-3,3.7-4.62,5.44-.81.87-1.62,1.74-2.44,2.6l-.62.64-.64.62L117.75,147c-.86.82-1.71,1.65-2.58,2.45s-1.76,1.59-2.66,2.37-1.8,1.55-2.7,2.32-1.85,1.49-2.79,2.22-1.87,1.46-2.82,2.18l-2.9,2.07c-1.93,1.38-3.91,2.71-5.91,4-4,2.59-8,5-12.09,7.5-2,1.24-4,2.42-6,3.67l-1.49.93-1.32.88-.65.45c-.22.15-.42.33-.63.49l-1.22,1a25.11,25.11,0,0,0-4.16,4.91,26.49,26.49,0,0,0-1.62,2.83,5.51,5.51,0,0,0-.33.75l-.31.76a13.38,13.38,0,0,0-.58,1.53l-.47,1.56a5.47,5.47,0,0,0-.19.8l-.16.8a23.6,23.6,0,0,0-.45,3.24,25,25,0,0,0,.43,6.47,23.5,23.5,0,0,0,.8,3.1,6.06,6.06,0,0,0,.27.75l.31.74.3.74.15.36.18.35c.5,1,.95,1.8,1.58,2.88s1.18,2.06,1.8,3.08c2.43,4.11,4.92,8.23,7.28,12.42s4.64,8.45,6.65,12.83c.52,1.08,1,2.19,1.46,3.3s.93,2.21,1.37,3.33c.88,2.24,1.67,4.5,2.42,6.78a121.31,121.31,0,0,1,5.57,28.24c.37,4.81.47,9.65.45,14.49,0,2.42,0,4.83-.1,7.24L94.43,311c0,1.2,0,2.39-.06,3.58,0,.63,0,1.11,0,1.65s0,1.07,0,1.61.12,1.06.19,1.59c0,.27.06.54.11.81l.17.78.37,1.59c.16.52.34,1,.51,1.55l.26.77.33.75.67,1.5.82,1.43.41.72.47.67,1,1.35,1.07,1.24.54.63.6.57,1.2,1.13c.42.35.86.68,1.29,1l.65.51.7.44,1.38.88c.49.26,1,.5,1.47.74l.73.37c.25.11.5.2.76.3l1.52.59,1.57.43.78.22c.26.06.53.09.79.14l1.59.27c.53.06,1.07.08,1.61.12,1,.08,2.23.1,3.39.12l7,.09c2.35,0,4.72,0,7.08.1l3.54.08c1.18,0,2.36.09,3.55.14,2.36.09,4.73.23,7.08.46,1.18.11,2.36.2,3.53.33s2.35.29,3.52.45a136.38,136.38,0,0,1,27.4,6.92,179.55,179.55,0,0,1,25.75,11.88L216,365l3.07,1.76,1.54.87c.51.28,1,.6,1.48.82a26,26,0,0,0,12.23,3.38l.82,0a5.48,5.48,0,0,0,.81,0l1.64-.12a14.82,14.82,0,0,0,1.63-.21l.81-.13a7.43,7.43,0,0,0,.82-.16,20.58,20.58,0,0,0,3.15-1l.76-.32a6.41,6.41,0,0,0,.75-.35l1.45-.82a14.28,14.28,0,0,0,1.36-.94l.66-.5a5.46,5.46,0,0,0,.64-.53,25.5,25.5,0,0,0,2.32-2.33c.36-.42.73-.81,1.07-1.23l1-1.31c.15-.22.32-.42.47-.64l.44-.68.86-1.35,1.86-3,1.82-3.05c1.24-2,2.45-4.07,3.67-6.12s2.44-4.1,3.7-6.14l1.89-3c.64-1,1.26-2,1.93-3a130.19,130.19,0,0,1,8.43-11.58c1.53-1.82,3-3.66,4.68-5.38.81-.87,1.63-1.74,2.46-2.59l.62-.64.63-.62,1.27-1.25A157.18,157.18,0,0,1,310.92,295c2-1.34,4-2.61,5.94-3.9s4-2.54,6-3.79,4-2.47,6-3.74l1.48-.95c.43-.28.86-.56,1.29-.86l.64-.44c.21-.15.4-.33.6-.49l1.21-1a25.09,25.09,0,0,0,4.09-4.8,24.52,24.52,0,0,0,1.61-2.76,6.07,6.07,0,0,0,.34-.73l.31-.73a13.66,13.66,0,0,0,.58-1.5l.49-1.53a5.25,5.25,0,0,0,.2-.78l.18-.79a28.06,28.06,0,0,0,.5-3.18,25.3,25.3,0,0,0-.23-6.39,23.73,23.73,0,0,0-.67-3.12,7.24,7.24,0,0,0-.24-.75L341,252l-.27-.74-.13-.37-.16-.36c-.45-1-.85-1.85-1.43-2.95s-1.06-2.1-1.62-3.15c-2.19-4.2-4.42-8.41-6.52-12.69a174.07,174.07,0,0,1-10.91-26.44,152.3,152.3,0,0,1-5.95-28c-.57-4.75-.91-9.53-1.16-14.3s-.41-9.55-.58-14.29c0-1.19-.09-2.38-.14-3.56,0-.62-.07-1.1-.11-1.64s-.06-1.05-.13-1.58l-.28-1.56c0-.26-.08-.52-.14-.78l-.21-.77-.43-1.54-.57-1.49L310,135l-.35-.72-.72-1.44-.84-1.36-.42-.69-.48-.64-1-1.28-1.08-1.18-.54-.59-.6-.54-1.18-1.08-1.28-1-.64-.48-.68-.41-1.36-.83-1.43-.68-.71-.34-.74-.28-1.48-.53c-.5-.14-1-.26-1.52-.39l-.75-.2c-.25,0-.51-.08-.77-.12l-1.53-.23c-.51-.06-1-.06-1.55-.1l-1.6,0-1.76,0c-1.17,0-2.35,0-3.53,0l-3.54,0c-2.36,0-4.73,0-7.09-.1l-3.56-.09c-1.19,0-2.37-.1-3.55-.15-2.37-.12-4.74-.26-7.1-.51-1.18-.11-2.36-.21-3.54-.35s-2.35-.3-3.52-.47a140.87,140.87,0,0,1-27.47-7,175.76,175.76,0,0,1-25.81-11.93l-6.2-3.5L184,92.22a25.51,25.51,0,0,0-11.82-3.5l-.8,0a7.09,7.09,0,0,0-.8,0l-1.59.09a12.23,12.23,0,0,0-1.6.17l-.8.11a7,7,0,0,0-.8.13,26,26,0,0,0-3.14.85l-.77.26a7.15,7.15,0,0,0-.77.29l-1.49.68a10,10,0,0,0-1.44.78l-.71.43a5.72,5.72,0,0,0-.69.44A20.3,20.3,0,0,0,154.24,95l-.6.56a6.37,6.37,0,0,0-.57.59L152,97.39a8,8,0,0,0-.51.64l-.47.67Zm-2.62-2a35.46,35.46,0,0,1,4.85-5.32,34.11,34.11,0,0,1,2.81-2.28,7.38,7.38,0,0,1,.74-.5l.76-.49a16.3,16.3,0,0,1,1.55-.93l1.6-.84a8.58,8.58,0,0,1,.82-.37l.84-.34a31.26,31.26,0,0,1,3.41-1.19A32.89,32.89,0,0,1,186,87.11c.57.22,1.09.46,1.62.68l1.59.69,3.17,1.37c2.13.9,4.27,1.77,6.4,2.65L205.22,95l6.49,2.4c2.18.76,4.35,1.55,6.54,2.28l3.29,1.08c1.1.36,2.19.72,3.3,1.06,8.81,2.74,17.73,5.13,26.74,7.09l3.38.74c1.13.24,2.26.45,3.39.67l3.4.66,3.4.6c1.14.2,2.27.41,3.41.6l3.41.54c2.27.38,4.56.69,6.84,1s4.56.6,6.85.89c1.14.15,2.27.26,3.46.47.59.11,1.18.18,1.77.31l1.73.44c.29.08.59.14.87.23l.85.29,1.7.6,1.64.72.82.37.79.43,1.57.88,1.51,1,.75.51.7.55,1.42,1.12,1.32,1.23.66.62.61.67,1.21,1.35,1.11,1.43.55.72.49.76,1,1.53.86,1.59.43.8.36.84.71,1.67.58,1.72.29.86c.09.29.15.58.23.88l.43,1.76c.13.59.2,1.19.3,1.79s.2,1.2.25,1.77L317,148q1.7,13.91,4.37,27.67a326.36,326.36,0,0,0,15.48,53.78c.84,2.17,1.65,4.36,2.54,6.51s1.73,4.33,2.64,6.47l1.36,3.22c.47,1,.89,2.21,1.32,3.34l.15.43.13.44.25.88.24.87.13.44c0,.15.06.3.09.45a34.34,34.34,0,0,1,.64,10.9c-.18,1.2-.29,2.42-.59,3.6l-.2.9c-.07.29-.12.59-.22.88l-.54,1.75a17.59,17.59,0,0,1-.64,1.71l-.34.85a6.71,6.71,0,0,1-.36.83,34.11,34.11,0,0,1-1.71,3.22,33.3,33.3,0,0,1-4.38,5.78l-1.29,1.27c-.22.21-.42.43-.65.63l-.7.58-1.4,1.14L332,287.62l-2.76,2.1-1.38,1-1.37,1.08c-1.81,1.44-3.64,2.85-5.43,4.32s-3.6,2.92-5.36,4.42c-7.1,6-14,12.18-20.57,18.72s-12.94,13.34-19,20.4-11.79,14.37-17.3,21.87l-1.11,1.4-.56.7c-.19.23-.4.44-.6.67l-1.22,1.31c-.42.43-.87.82-1.3,1.24a33.51,33.51,0,0,1-2.76,2.29,7.57,7.57,0,0,1-.74.52l-.75.49a16.25,16.25,0,0,1-1.54.94l-1.58.86a7.65,7.65,0,0,1-.82.38l-.83.35a29,29,0,0,1-3.39,1.2,32.6,32.6,0,0,1-21.13-1.32c-.57-.22-1.08-.46-1.61-.68l-1.59-.69-3.18-1.38c-2.12-.9-4.26-1.77-6.39-2.65l-6.44-2.53-6.49-2.41c-2.18-.76-4.35-1.55-6.54-2.28L185,358.92c-1.1-.36-2.19-.73-3.3-1.06-8.82-2.72-17.75-5.09-26.77-7l-3.38-.72c-1.13-.23-2.27-.43-3.4-.64l-3.4-.64-3.41-.57-3.4-.57-3.42-.52c-2.27-.36-4.56-.66-6.84-1s-4.57-.58-6.85-.85c-1.15-.14-2.27-.24-3.48-.45-.59-.1-1.19-.17-1.78-.3l-1.76-.44c-.29-.08-.59-.14-.87-.23l-.86-.29-1.72-.59-1.66-.73-.83-.37-.8-.44-1.59-.88-1.52-1-.76-.5-.72-.56L101,337.46l-1.34-1.24L99,335.6l-.62-.68-1.22-1.36-1.11-1.45-.56-.73-.5-.77-1-1.54-.86-1.62-.43-.81-.36-.84-.72-1.69-.58-1.74-.29-.87c-.09-.29-.15-.59-.23-.89l-.43-1.78c-.12-.6-.2-1.2-.3-1.81s-.18-1.21-.24-1.78l-.39-3.48q-1.61-13.9-4.18-27.7a313.5,313.5,0,0,0-15.36-53.8c-.84-2.18-1.66-4.36-2.54-6.52s-1.74-4.32-2.66-6.46l-1.36-3.22c-.47-1.05-.89-2.21-1.32-3.34l-.15-.43-.13-.43-.25-.88L61,208.1l-.12-.44c0-.14-.06-.29-.09-.44a32.93,32.93,0,0,1-.06-14.5l.19-.9c.07-.29.12-.59.22-.88l.54-1.75c.17-.59.42-1.14.64-1.71l.34-.85a6.12,6.12,0,0,1,.36-.83,32,32,0,0,1,1.71-3.22,33,33,0,0,1,4.37-5.79l1.29-1.27c.22-.21.43-.43.66-.63l.69-.58,1.4-1.14,1.38-1L77.26,170l1.38-1L80,167.88c1.81-1.44,3.65-2.85,5.43-4.33s3.59-2.92,5.35-4.43q10.65-8.94,20.55-18.74t18.91-20.45Q139.26,109.3,147.48,98Z"></path></g></g></svg><style>@media (prefers-color-scheme: light) { :root { filter: contrast(1) brightness(0.6); } }
@media (prefers-color-scheme: dark) { :root { filter: contrast(0.9090909090909091) brightness(1.5); } }
</style></svg>