<?xml version="1.0" standalone="no"?>
<!DOCTYPE svg PUBLIC "-//W3C//DTD SVG 20010904//EN"
 "http://www.w3.org/TR/2001/REC-SVG-20010904/DTD/svg10.dtd">
<svg version="1.0" xmlns="http://www.w3.org/2000/svg"
 width="920.000000pt" height="920.000000pt" viewBox="0 0 920.000000 920.000000"
 preserveAspectRatio="xMidYMid meet">
<metadata>
Created by potrace 1.14, written by Peter Selinger 2001-2017
</metadata>
<g transform="translate(0.000000,920.000000) scale(0.100000,-0.100000)"
fill="#000000" stroke="none">
<path d="M4499 9196 c-2 -2 -22 -6 -44 -9 -180 -24 -355 -105 -520 -240 -109
-89 -144 -115 -149 -110 -3 4 -6 2 -6 -3 0 -6 -33 -35 -72 -65 -40 -29 -75
-56 -78 -59 -3 -3 -50 -38 -105 -78 -55 -39 -104 -75 -110 -79 -28 -23 -274
-190 -298 -202 -15 -8 -27 -18 -27 -21 0 -4 -13 -13 -30 -20 -16 -7 -30 -16
-30 -21 0 -5 -4 -9 -10 -9 -5 0 -42 -21 -82 -47 -79 -52 -78 -51 -165 -103
-32 -18 -64 -40 -71 -47 -7 -7 -17 -13 -21 -13 -6 0 -280 -152 -341 -190 -8
-5 -73 -39 -145 -75 -71 -37 -137 -71 -145 -76 -22 -13 -310 -149 -316 -149
-10 0 -100 -45 -105 -53 -3 -5 -10 -8 -15 -8 -8 1 -81 -29 -219 -89 -22 -9
-94 -39 -160 -65 -66 -27 -132 -57 -146 -66 -14 -10 -28 -16 -31 -13 -3 2 -11
-2 -18 -11 -7 -8 -18 -15 -25 -15 -8 0 -15 -3 -17 -7 -2 -5 -28 -27 -58 -50
-67 -50 -163 -150 -212 -218 -45 -64 -98 -160 -98 -179 0 -8 -4 -16 -8 -18 -9
-3 -50 -136 -57 -184 -2 -16 -7 -42 -10 -59 -13 -63 -8 -269 8 -350 3 -11 8
-47 12 -80 4 -32 9 -68 11 -80 2 -11 6 -47 9 -80 3 -33 7 -71 9 -85 5 -27 13
-97 21 -195 3 -33 8 -80 11 -105 2 -25 6 -81 9 -125 3 -44 7 -99 10 -123 18
-162 26 -928 11 -1187 -7 -129 -9 -167 -22 -320 -3 -44 -7 -98 -9 -120 -3 -52
-16 -183 -20 -215 -5 -35 -15 -117 -20 -170 -9 -88 -16 -145 -21 -173 -3 -15
-8 -44 -10 -65 -2 -20 -7 -57 -11 -82 -10 -55 -9 -291 0 -340 55 -291 209
-531 439 -683 91 -61 129 -79 328 -160 126 -51 256 -106 339 -144 20 -9 65
-29 101 -45 102 -46 514 -251 630 -314 101 -55 374 -215 395 -231 6 -4 27 -17
48 -28 20 -11 37 -23 37 -27 0 -5 5 -8 11 -8 9 0 380 -244 413 -271 6 -5 76
-57 156 -115 80 -58 157 -116 172 -130 15 -13 30 -24 33 -24 5 0 151 -114 259
-203 21 -18 46 -36 55 -41 9 -5 18 -13 21 -17 29 -43 281 -164 385 -185 100
-20 310 -26 390 -12 68 12 78 15 160 43 133 44 208 90 415 255 80 64 197 155
260 203 63 47 120 90 125 95 6 4 80 57 165 118 241 172 472 320 720 464 107
62 144 83 305 170 67 37 453 230 459 230 2 0 43 19 92 42 49 23 91 43 94 43 3
1 28 12 55 24 28 12 127 54 220 93 341 140 384 165 526 307 86 86 142 163 192
268 30 63 39 85 52 128 8 25 26 103 32 135 14 74 6 334 -12 430 -2 8 -6 43
-10 75 -4 33 -9 69 -12 80 -2 11 -6 46 -8 78 -3 32 -7 70 -9 85 -3 15 -7 54
-10 87 -8 90 -17 186 -21 220 -2 17 -7 77 -10 135 -4 58 -8 134 -11 170 -3 57
-15 400 -15 440 0 12 0 154 0 265 0 99 17 484 26 585 2 25 7 81 10 125 10 129
14 177 20 235 6 71 16 160 20 182 2 9 7 48 10 85 4 37 8 75 10 83 2 8 7 42 11
75 3 33 8 69 10 80 13 63 19 144 19 250 -1 152 -10 212 -52 335 -91 266 -285
479 -545 599 -85 39 -115 52 -133 57 -5 1 -28 10 -50 20 -22 10 -44 19 -50 20
-21 5 -470 206 -479 215 -6 5 -18 9 -28 9 -10 0 -18 5 -18 10 0 6 -5 10 -11
10 -11 0 -363 175 -439 217 -19 11 -62 35 -95 53 -90 50 -229 130 -330 192
-49 30 -101 61 -114 69 -97 58 -527 350 -600 406 -9 7 -79 60 -156 117 -77 58
-180 137 -230 176 -141 111 -205 156 -270 189 -53 28 -156 68 -195 76 -8 2
-37 9 -65 15 -49 12 -287 25 -296 16z m281 -135 c86 -24 114 -34 173 -64 34
-17 67 -35 72 -40 6 -4 25 -18 43 -31 29 -21 188 -166 292 -266 20 -19 81 -75
136 -125 54 -49 103 -95 109 -101 5 -6 48 -44 95 -84 47 -40 97 -83 111 -95
21 -18 143 -112 270 -208 8 -7 23 -16 32 -22 8 -5 53 -35 99 -66 278 -188 663
-382 998 -503 41 -15 84 -31 95 -36 22 -9 286 -94 400 -130 168 -51 323 -104
365 -123 221 -102 399 -336 438 -577 8 -47 8 -227 0 -270 -5 -29 -82 -368
-133 -585 -7 -33 -21 -96 -29 -140 -9 -44 -19 -91 -21 -105 -3 -14 -8 -41 -11
-60 -3 -19 -7 -42 -9 -50 -3 -8 -7 -35 -10 -60 -3 -25 -9 -76 -15 -115 -34
-244 -47 -542 -35 -785 5 -100 14 -235 15 -235 2 0 8 -47 14 -95 10 -87 20
-145 47 -284 17 -82 32 -153 34 -157 3 -4 7 -26 10 -49 3 -24 8 -47 11 -51 5
-8 7 -18 18 -74 2 -11 12 -49 21 -85 9 -36 18 -72 20 -80 2 -8 11 -46 20 -85
9 -38 18 -77 20 -85 2 -8 13 -55 25 -105 12 -49 23 -101 25 -115 2 -14 8 -47
14 -75 17 -91 9 -278 -16 -335 -3 -8 -7 -20 -8 -26 -4 -16 -57 -128 -64 -134
-3 -3 -19 -23 -35 -45 -35 -48 -115 -128 -173 -173 -71 -55 -257 -139 -349
-156 -10 -2 -39 -10 -64 -17 -57 -16 -45 -12 -185 -54 -66 -20 -127 -38 -135
-40 -8 -2 -28 -9 -45 -15 -16 -6 -37 -13 -45 -15 -31 -7 -227 -77 -339 -121
-119 -47 -152 -62 -279 -120 -41 -19 -76 -34 -78 -34 -3 0 -16 -8 -31 -17 -14
-10 -32 -18 -40 -19 -8 -2 -23 -10 -32 -18 -10 -9 -25 -16 -34 -16 -9 0 -18
-4 -22 -9 -3 -6 -18 -16 -33 -24 -36 -18 -81 -44 -177 -103 -70 -42 -124 -78
-240 -158 -42 -30 -235 -180 -270 -211 -38 -33 -164 -146 -207 -186 -18 -17
-141 -138 -273 -268 -133 -130 -259 -250 -280 -266 -22 -17 -42 -33 -45 -36
-13 -16 -183 -89 -245 -104 -69 -18 -234 -24 -300 -12 -96 18 -107 21 -207 65
-32 14 -58 28 -58 32 0 4 -12 11 -27 15 -27 6 -92 71 -526 516 -114 118 -244
246 -289 284 -45 39 -89 77 -98 85 -20 19 -204 160 -234 180 -13 8 -54 36 -92
61 -254 168 -564 320 -839 410 -49 16 -97 32 -105 36 -17 7 -26 9 -55 17 -11
3 -51 14 -90 26 -38 12 -77 23 -85 25 -8 2 -78 20 -155 40 -77 20 -158 41
-180 46 -22 5 -44 11 -50 13 -5 1 -23 6 -40 10 -90 23 -205 57 -240 72 -22 10
-42 18 -45 19 -19 3 -134 87 -183 133 -102 97 -172 220 -213 372 -20 74 -27
264 -12 319 6 20 11 45 13 56 2 16 95 403 122 505 9 37 11 42 16 70 60 276 66
308 72 355 1 11 3 20 5 20 1 0 3 9 4 20 2 18 10 72 22 151 5 35 12 98 19 194
3 36 8 90 11 120 6 75 6 71 5 105 -1 17 -1 77 -1 135 1 101 -6 246 -16 320 -2
19 -7 60 -10 90 -3 30 -8 69 -10 85 -3 17 -7 42 -9 56 -2 14 -9 47 -15 73 -5
25 -13 63 -16 82 -4 28 -110 453 -148 599 -75 281 -115 512 -93 542 4 6 3 14
-3 18 -6 3 -8 10 -6 14 3 4 8 23 11 42 43 259 235 500 480 602 52 21 250 81
303 92 11 2 50 13 88 25 38 12 77 23 86 25 54 11 292 88 345 111 17 8 35 14
40 14 4 0 60 21 123 46 63 25 133 53 155 61 21 8 51 20 65 28 14 7 90 45 170
83 80 38 186 93 235 122 50 29 105 61 124 72 18 10 68 42 110 71 42 29 83 56
92 62 71 43 260 191 383 299 115 100 189 172 435 414 267 264 309 297 441 355
59 26 84 33 146 43 21 3 41 8 43 9 7 8 237 -4 271 -14z"/>
<path d="M3885 7494 c-85 -18 -138 -38 -207 -81 -66 -39 -175 -142 -204 -192
-10 -17 -22 -31 -26 -31 -4 0 -8 -5 -8 -11 0 -6 -6 -16 -12 -23 -7 -7 -24 -28
-38 -47 -25 -33 -173 -218 -214 -267 -154 -183 -228 -264 -417 -452 -144 -143
-240 -233 -329 -306 -19 -16 -42 -36 -51 -44 -32 -31 -122 -105 -137 -114 -8
-4 -22 -16 -31 -25 -9 -9 -75 -62 -146 -118 -154 -120 -188 -156 -248 -265
-14 -25 -23 -49 -20 -52 4 -3 2 -6 -4 -6 -6 0 -14 -15 -18 -32 -4 -18 -9 -35
-10 -38 -10 -29 -25 -125 -26 -165 -2 -123 17 -204 96 -390 26 -60 55 -132 65
-160 10 -27 28 -75 40 -105 48 -124 148 -423 157 -469 2 -13 8 -32 14 -43 5
-10 7 -18 4 -18 -3 0 -1 -8 4 -19 6 -10 13 -31 16 -47 3 -16 18 -80 34 -143
17 -63 28 -118 25 -123 -3 -4 -1 -8 3 -8 5 0 9 -8 10 -17 0 -16 8 -53 28 -143
3 -14 7 -41 10 -60 2 -19 7 -46 10 -60 7 -35 26 -148 31 -190 2 -19 6 -44 8
-55 3 -11 8 -47 11 -80 4 -33 9 -71 11 -85 3 -14 7 -50 10 -80 16 -188 83
-332 210 -457 24 -24 46 -43 50 -43 3 0 20 -11 37 -24 89 -67 202 -101 392
-121 63 -6 68 -7 180 -24 39 -6 86 -13 106 -15 20 -3 42 -8 50 -10 8 -3 32 -7
54 -10 22 -2 51 -7 65 -10 14 -3 36 -8 50 -10 26 -5 280 -61 340 -76 131 -32
308 -85 460 -137 85 -30 162 -55 170 -58 27 -7 294 -116 333 -135 20 -11 37
-17 37 -15 0 3 17 -3 38 -14 89 -45 164 -63 282 -66 193 -5 319 45 455 180 70
70 105 110 105 121 0 3 6 11 13 18 6 7 23 28 37 46 46 62 134 175 140 180 3 3
25 30 50 60 71 87 74 90 100 119 14 15 50 56 80 91 58 68 391 404 475 480 28
25 84 74 125 110 41 36 80 70 86 75 6 6 28 24 49 40 21 17 43 35 49 40 17 15
146 116 191 150 161 120 245 225 295 371 24 70 34 129 34 214 0 127 -20 203
-91 360 -16 36 -31 70 -32 75 -2 6 -7 20 -12 33 -5 13 -9 26 -9 29 0 5 -20 53
-42 98 -5 12 -10 27 -12 35 -1 8 -9 31 -18 50 -12 28 -58 158 -63 180 -1 3 -4
12 -7 20 -10 25 -60 184 -63 200 -2 8 -15 53 -29 100 -26 89 -84 320 -92 368
-3 15 -7 35 -10 44 -3 10 -7 29 -10 43 -4 28 -11 59 -17 90 -5 20 -26 145 -32
187 -2 13 -6 34 -9 48 -3 14 -8 45 -11 70 -3 25 -8 59 -11 75 -3 17 -7 48 -9
70 -2 22 -6 56 -9 75 -3 19 -8 57 -11 85 -17 137 -91 284 -196 386 -108 107
-235 165 -399 184 -25 3 -56 8 -70 10 -14 2 -52 7 -84 10 -33 3 -62 8 -65 10
-4 2 -34 6 -66 10 -33 3 -67 8 -77 11 -15 4 -92 19 -163 30 -24 4 -159 33
-275 59 -15 4 -113 28 -185 47 -22 5 -47 11 -55 13 -8 2 -15 4 -15 5 0 1 -7 3
-15 5 -8 2 -67 20 -130 39 -63 20 -122 38 -130 40 -42 11 -401 144 -490 183
-19 8 -44 19 -55 23 -26 10 -92 39 -130 56 -98 44 -271 61 -380 38z m175 -78
c14 -3 26 -5 28 -6 1 -2 5 -3 10 -5 4 -1 21 -5 37 -10 17 -4 32 -11 35 -14 3
-3 25 -16 50 -29 25 -13 83 -46 130 -74 90 -54 378 -202 445 -230 107 -44 227
-90 243 -93 9 -2 37 -11 62 -20 81 -29 260 -72 370 -90 19 -3 46 -7 60 -10 24
-4 51 -7 185 -21 33 -3 144 -7 246 -8 102 -2 191 -6 197 -10 7 -4 12 -4 12 1
0 9 137 9 146 0 3 -3 12 -3 19 0 18 6 117 -22 170 -49 105 -53 214 -184 248
-298 21 -70 26 -119 32 -308 10 -276 25 -480 41 -556 3 -12 7 -39 9 -61 2 -22
7 -51 9 -65 3 -14 10 -47 16 -75 17 -81 18 -86 45 -185 14 -52 32 -111 40
-131 8 -20 11 -39 8 -43 -4 -3 -2 -6 4 -6 5 0 10 -6 10 -12 0 -23 85 -231 148
-363 34 -71 63 -134 65 -140 1 -5 10 -21 20 -35 9 -14 51 -94 93 -178 91 -184
108 -270 81 -404 -14 -69 -53 -168 -66 -168 -5 0 -7 -4 -3 -9 13 -21 -133
-147 -260 -225 -252 -155 -420 -273 -613 -431 -48 -39 -239 -233 -288 -291
-83 -99 -86 -104 -124 -159 -19 -28 -37 -51 -42 -53 -4 -2 -8 -8 -8 -13 0 -4
-27 -50 -61 -101 -34 -51 -65 -102 -70 -113 -5 -11 -23 -40 -39 -65 -16 -25
-34 -54 -40 -65 -5 -11 -20 -37 -32 -57 -13 -20 -43 -69 -67 -109 -72 -119
-195 -229 -271 -243 -14 -2 -25 -5 -25 -6 0 -4 -48 -11 -105 -14 -36 -1 -94 3
-130 10 -65 14 -188 67 -202 88 -4 6 -8 7 -8 2 0 -5 -8 -2 -17 6 -10 9 -45 30
-77 47 -33 17 -64 35 -70 40 -12 9 -220 114 -306 154 -100 46 -297 122 -341
132 -9 2 -37 10 -62 19 -25 8 -56 17 -69 20 -13 2 -51 12 -85 21 -34 8 -75 18
-92 20 -17 3 -44 7 -61 10 -173 29 -225 33 -555 39 -283 6 -354 11 -400 27
-77 27 -161 78 -206 124 -58 60 -71 78 -104 142 -39 78 -47 135 -45 308 5 383
1 583 -15 685 -2 14 -6 43 -9 65 -3 22 -11 65 -17 95 -5 30 -12 66 -15 80 -3
14 -7 33 -10 42 -3 9 -7 26 -9 38 -11 59 -74 239 -122 352 -63 149 -192 387
-311 578 -9 14 -15 27 -15 30 1 3 -4 12 -12 20 -25 29 -62 126 -73 190 -27
166 29 336 148 448 39 38 75 61 270 181 212 130 262 162 277 177 8 8 18 14 23
14 5 0 15 6 22 13 7 6 57 45 112 86 131 99 337 304 429 426 4 5 17 23 28 38
46 61 148 222 201 317 119 211 229 382 283 435 72 72 150 114 245 130 19 3 36
7 37 9 4 3 130 -3 163 -8z"/>
</g>
</svg>
